<?xml version="1.0" encoding="UTF-8" standalone="no"?>
<!DOCTYPE svg PUBLIC "-//W3C//DTD SVG 1.1//EN"
 "http://www.w3.org/Graphics/SVG/1.1/DTD/svg11.dtd">
<!-- Generated by graphviz version 2.43.0 (0)
 -->
<!-- Title: snakemake_dag Pages: 1 -->
<svg width="337pt" height="265pt"
 viewBox="0.00 0.00 337.00 265.00" xmlns="http://www.w3.org/2000/svg" xmlns:xlink="http://www.w3.org/1999/xlink">
<g id="graph0" class="graph" transform="scale(1 1) rotate(0) translate(4 261)">
<title>snakemake_dag</title>
<polygon fill="white" stroke="transparent" points="-4,4 -4,-261 333,-261 333,4 -4,4"/>
<!-- 0 -->
<g id="node1" class="node">
<title>0</title>
<path fill="none" stroke="#56d8d8" stroke-width="2" d="M179,-36C179,-36 149,-36 149,-36 143,-36 137,-30 137,-24 137,-24 137,-12 137,-12 137,-6 143,0 149,0 149,0 179,0 179,0 185,0 191,-6 191,-12 191,-12 191,-24 191,-24 191,-30 185,-36 179,-36"/>
<text text-anchor="middle" x="164" y="-15.5" font-family="sans" font-size="10.00">all</text>
</g>
<!-- 1 -->
<g id="node2" class="node">
<title>1</title>
<path fill="none" stroke="#d85656" stroke-width="2" d="M184.5,-108C184.5,-108 143.5,-108 143.5,-108 137.5,-108 131.5,-102 131.5,-96 131.5,-96 131.5,-84 131.5,-84 131.5,-78 137.5,-72 143.5,-72 143.5,-72 184.5,-72 184.5,-72 190.5,-72 196.5,-78 196.5,-84 196.5,-84 196.5,-96 196.5,-96 196.5,-102 190.5,-108 184.5,-108"/>
<text text-anchor="middle" x="164" y="-87.5" font-family="sans" font-size="10.00">merge_all</text>
</g>
<!-- 1&#45;&gt;0 -->
<g id="edge1" class="edge">
<title>1&#45;&gt;0</title>
<path fill="none" stroke="grey" stroke-width="2" d="M164,-71.7C164,-63.98 164,-54.71 164,-46.11"/>
<polygon fill="grey" stroke="grey" stroke-width="2" points="167.5,-46.1 164,-36.1 160.5,-46.1 167.5,-46.1"/>
</g>
<!-- 2 -->
<g id="node3" class="node">
<title>2</title>
<path fill="none" stroke="#d6d856" stroke-width="2" d="M143.5,-180C143.5,-180 92.5,-180 92.5,-180 86.5,-180 80.5,-174 80.5,-168 80.5,-168 80.5,-156 80.5,-156 80.5,-150 86.5,-144 92.5,-144 92.5,-144 143.5,-144 143.5,-144 149.5,-144 155.5,-150 155.5,-156 155.5,-156 155.5,-168 155.5,-168 155.5,-174 149.5,-180 143.5,-180"/>
<text text-anchor="middle" x="118" y="-159.5" font-family="sans" font-size="10.00">merge_year</text>
</g>
<!-- 2&#45;&gt;1 -->
<g id="edge2" class="edge">
<title>2&#45;&gt;1</title>
<path fill="none" stroke="grey" stroke-width="2" d="M129.37,-143.7C134.72,-135.56 141.2,-125.69 147.11,-116.7"/>
<polygon fill="grey" stroke="grey" stroke-width="2" points="150.19,-118.38 152.76,-108.1 144.34,-114.54 150.19,-118.38"/>
</g>
<!-- 3 -->
<g id="node4" class="node">
<title>3</title>
<path fill="none" stroke="#59d856" stroke-width="2" stroke-dasharray="5,2" d="M56,-257C56,-257 12,-257 12,-257 6,-257 0,-251 0,-245 0,-245 0,-228 0,-228 0,-222 6,-216 12,-216 12,-216 56,-216 56,-216 62,-216 68,-222 68,-228 68,-228 68,-245 68,-245 68,-251 62,-257 56,-257"/>
<text text-anchor="middle" x="34" y="-245" font-family="sans" font-size="10.00">retrieve</text>
<text text-anchor="middle" x="34" y="-234" font-family="sans" font-size="10.00">month: 1</text>
<text text-anchor="middle" x="34" y="-223" font-family="sans" font-size="10.00">year: 1950</text>
</g>
<!-- 3&#45;&gt;2 -->
<g id="edge4" class="edge">
<title>3&#45;&gt;2</title>
<path fill="none" stroke="grey" stroke-width="2" d="M56.95,-215.69C67.35,-206.72 79.72,-196.04 90.6,-186.65"/>
<polygon fill="grey" stroke="grey" stroke-width="2" points="92.93,-189.26 98.21,-180.08 88.36,-183.96 92.93,-189.26"/>
</g>
<!-- 4 -->
<g id="node5" class="node">
<title>4</title>
<path fill="none" stroke="#59d856" stroke-width="2" stroke-dasharray="5,2" d="M142,-257C142,-257 98,-257 98,-257 92,-257 86,-251 86,-245 86,-245 86,-228 86,-228 86,-222 92,-216 98,-216 98,-216 142,-216 142,-216 148,-216 154,-222 154,-228 154,-228 154,-245 154,-245 154,-251 148,-257 142,-257"/>
<text text-anchor="middle" x="120" y="-245" font-family="sans" font-size="10.00">retrieve</text>
<text text-anchor="middle" x="120" y="-234" font-family="sans" font-size="10.00">month: 2</text>
<text text-anchor="middle" x="120" y="-223" font-family="sans" font-size="10.00">year: 1950</text>
</g>
<!-- 4&#45;&gt;2 -->
<g id="edge5" class="edge">
<title>4&#45;&gt;2</title>
<path fill="none" stroke="grey" stroke-width="2" d="M119.45,-215.69C119.24,-207.91 118.99,-198.84 118.76,-190.45"/>
<polygon fill="grey" stroke="grey" stroke-width="2" points="122.25,-190.22 118.48,-180.32 115.25,-190.41 122.25,-190.22"/>
</g>
<!-- 5 -->
<g id="node6" class="node">
<title>5</title>
<path fill="none" stroke="#d6d856" stroke-width="2" d="M236.5,-180C236.5,-180 185.5,-180 185.5,-180 179.5,-180 173.5,-174 173.5,-168 173.5,-168 173.5,-156 173.5,-156 173.5,-150 179.5,-144 185.5,-144 185.5,-144 236.5,-144 236.5,-144 242.5,-144 248.5,-150 248.5,-156 248.5,-156 248.5,-168 248.5,-168 248.5,-174 242.5,-180 236.5,-180"/>
<text text-anchor="middle" x="211" y="-159.5" font-family="sans" font-size="10.00">merge_year</text>
</g>
<!-- 5&#45;&gt;1 -->
<g id="edge3" class="edge">
<title>5&#45;&gt;1</title>
<path fill="none" stroke="grey" stroke-width="2" d="M199.38,-143.7C193.86,-135.47 187.15,-125.48 181.07,-116.42"/>
<polygon fill="grey" stroke="grey" stroke-width="2" points="183.96,-114.46 175.48,-108.1 178.15,-118.36 183.96,-114.46"/>
</g>
<!-- 6 -->
<g id="node7" class="node">
<title>6</title>
<path fill="none" stroke="#59d856" stroke-width="2" d="M231,-257C231,-257 187,-257 187,-257 181,-257 175,-251 175,-245 175,-245 175,-228 175,-228 175,-222 181,-216 187,-216 187,-216 231,-216 231,-216 237,-216 243,-222 243,-228 243,-228 243,-245 243,-245 243,-251 237,-257 231,-257"/>
<text text-anchor="middle" x="209" y="-245" font-family="sans" font-size="10.00">retrieve</text>
<text text-anchor="middle" x="209" y="-234" font-family="sans" font-size="10.00">month: 1</text>
<text text-anchor="middle" x="209" y="-223" font-family="sans" font-size="10.00">year: 1951</text>
</g>
<!-- 6&#45;&gt;5 -->
<g id="edge6" class="edge">
<title>6&#45;&gt;5</title>
<path fill="none" stroke="grey" stroke-width="2" d="M209.55,-215.69C209.76,-207.91 210.01,-198.84 210.24,-190.45"/>
<polygon fill="grey" stroke="grey" stroke-width="2" points="213.75,-190.41 210.52,-180.32 206.75,-190.22 213.75,-190.41"/>
</g>
<!-- 7 -->
<g id="node8" class="node">
<title>7</title>
<path fill="none" stroke="#59d856" stroke-width="2" d="M317,-257C317,-257 273,-257 273,-257 267,-257 261,-251 261,-245 261,-245 261,-228 261,-228 261,-222 267,-216 273,-216 273,-216 317,-216 317,-216 323,-216 329,-222 329,-228 329,-228 329,-245 329,-245 329,-251 323,-257 317,-257"/>
<text text-anchor="middle" x="295" y="-245" font-family="sans" font-size="10.00">retrieve</text>
<text text-anchor="middle" x="295" y="-234" font-family="sans" font-size="10.00">month: 2</text>
<text text-anchor="middle" x="295" y="-223" font-family="sans" font-size="10.00">year: 1951</text>
</g>
<!-- 7&#45;&gt;5 -->
<g id="edge7" class="edge">
<title>7&#45;&gt;5</title>
<path fill="none" stroke="grey" stroke-width="2" d="M272.05,-215.69C261.65,-206.72 249.28,-196.04 238.4,-186.65"/>
<polygon fill="grey" stroke="grey" stroke-width="2" points="240.64,-183.96 230.79,-180.08 236.07,-189.26 240.64,-183.96"/>
</g>
</g>
</svg>
