<?xml version="1.0" encoding="UTF-8" standalone="no"?>
<!DOCTYPE svg PUBLIC "-//W3C//DTD SVG 1.1//EN"
 "http://www.w3.org/Graphics/SVG/1.1/DTD/svg11.dtd">
<!-- Generated by graphviz version 2.43.0 (0)
 -->
<!-- Title: snakemake_dag Pages: 1 -->
<svg width="162pt" height="265pt"
 viewBox="0.00 0.00 162.00 265.00" xmlns="http://www.w3.org/2000/svg" xmlns:xlink="http://www.w3.org/1999/xlink">
<g id="graph0" class="graph" transform="scale(1 1) rotate(0) translate(4 261)">
<title>snakemake_dag</title>
<polygon fill="white" stroke="transparent" points="-4,4 -4,-261 158,-261 158,4 -4,4"/>
<!-- 0 -->
<g id="node1" class="node">
<title>0</title>
<path fill="none" stroke="#d6d856" stroke-width="2" d="M92,-36C92,-36 62,-36 62,-36 56,-36 50,-30 50,-24 50,-24 50,-12 50,-12 50,-6 56,0 62,0 62,0 92,0 92,0 98,0 104,-6 104,-12 104,-12 104,-24 104,-24 104,-30 98,-36 92,-36"/>
<text text-anchor="middle" x="77" y="-15.5" font-family="sans" font-size="10.00">all</text>
</g>
<!-- 1 -->
<g id="node2" class="node">
<title>1</title>
<path fill="none" stroke="#56d8d8" stroke-width="2" d="M97.5,-108C97.5,-108 56.5,-108 56.5,-108 50.5,-108 44.5,-102 44.5,-96 44.5,-96 44.5,-84 44.5,-84 44.5,-78 50.5,-72 56.5,-72 56.5,-72 97.5,-72 97.5,-72 103.5,-72 109.5,-78 109.5,-84 109.5,-84 109.5,-96 109.5,-96 109.5,-102 103.5,-108 97.5,-108"/>
<text text-anchor="middle" x="77" y="-87.5" font-family="sans" font-size="10.00">merge_all</text>
</g>
<!-- 1&#45;&gt;0 -->
<g id="edge1" class="edge">
<title>1&#45;&gt;0</title>
<path fill="none" stroke="grey" stroke-width="2" d="M77,-71.7C77,-63.98 77,-54.71 77,-46.11"/>
<polygon fill="grey" stroke="grey" stroke-width="2" points="80.5,-46.1 77,-36.1 73.5,-46.1 80.5,-46.1"/>
</g>
<!-- 2 -->
<g id="node3" class="node">
<title>2</title>
<path fill="none" stroke="#59d856" stroke-width="2" d="M102.5,-180C102.5,-180 51.5,-180 51.5,-180 45.5,-180 39.5,-174 39.5,-168 39.5,-168 39.5,-156 39.5,-156 39.5,-150 45.5,-144 51.5,-144 51.5,-144 102.5,-144 102.5,-144 108.5,-144 114.5,-150 114.5,-156 114.5,-156 114.5,-168 114.5,-168 114.5,-174 108.5,-180 102.5,-180"/>
<text text-anchor="middle" x="77" y="-159.5" font-family="sans" font-size="10.00">merge_year</text>
</g>
<!-- 2&#45;&gt;1 -->
<g id="edge2" class="edge">
<title>2&#45;&gt;1</title>
<path fill="none" stroke="grey" stroke-width="2" d="M77,-143.7C77,-135.98 77,-126.71 77,-118.11"/>
<polygon fill="grey" stroke="grey" stroke-width="2" points="80.5,-118.1 77,-108.1 73.5,-118.1 80.5,-118.1"/>
</g>
<!-- 3 -->
<g id="node4" class="node">
<title>3</title>
<path fill="none" stroke="#d85656" stroke-width="2" d="M56,-257C56,-257 12,-257 12,-257 6,-257 0,-251 0,-245 0,-245 0,-228 0,-228 0,-222 6,-216 12,-216 12,-216 56,-216 56,-216 62,-216 68,-222 68,-228 68,-228 68,-245 68,-245 68,-251 62,-257 56,-257"/>
<text text-anchor="middle" x="34" y="-245" font-family="sans" font-size="10.00">retrieve</text>
<text text-anchor="middle" x="34" y="-234" font-family="sans" font-size="10.00">month: 1</text>
<text text-anchor="middle" x="34" y="-223" font-family="sans" font-size="10.00">year: 1950</text>
</g>
<!-- 3&#45;&gt;2 -->
<g id="edge3" class="edge">
<title>3&#45;&gt;2</title>
<path fill="none" stroke="grey" stroke-width="2" d="M45.75,-215.69C50.62,-207.47 56.34,-197.83 61.55,-189.05"/>
<polygon fill="grey" stroke="grey" stroke-width="2" points="64.64,-190.71 66.73,-180.32 58.62,-187.14 64.64,-190.71"/>
</g>
<!-- 4 -->
<g id="node5" class="node">
<title>4</title>
<path fill="none" stroke="#d85656" stroke-width="2" d="M142,-257C142,-257 98,-257 98,-257 92,-257 86,-251 86,-245 86,-245 86,-228 86,-228 86,-222 92,-216 98,-216 98,-216 142,-216 142,-216 148,-216 154,-222 154,-228 154,-228 154,-245 154,-245 154,-251 148,-257 142,-257"/>
<text text-anchor="middle" x="120" y="-245" font-family="sans" font-size="10.00">retrieve</text>
<text text-anchor="middle" x="120" y="-234" font-family="sans" font-size="10.00">month: 2</text>
<text text-anchor="middle" x="120" y="-223" font-family="sans" font-size="10.00">year: 1950</text>
</g>
<!-- 4&#45;&gt;2 -->
<g id="edge4" class="edge">
<title>4&#45;&gt;2</title>
<path fill="none" stroke="grey" stroke-width="2" d="M108.25,-215.69C103.38,-207.47 97.66,-197.83 92.45,-189.05"/>
<polygon fill="grey" stroke="grey" stroke-width="2" points="95.38,-187.14 87.27,-180.32 89.36,-190.71 95.38,-187.14"/>
</g>
</g>
</svg>
